<?xml version="1.0" encoding="UTF-8"?>
<!DOCTYPE svg PUBLIC "-//W3C//DTD SVG 1.1//EN" "http://www.w3.org/Graphics/SVG/1.1/DTD/svg11.dtd">
<svg xmlns="http://www.w3.org/2000/svg" version="1.1" width="192px" height="192px" style="shape-rendering:geometricPrecision; text-rendering:geometricPrecision; image-rendering:optimizeQuality; fill-rule:evenodd; clip-rule:evenodd" xmlns:xlink="http://www.w3.org/1999/xlink">
<g><path style="opacity:0.999" fill="#1e1b4b" d="M 10.5,-0.5 C 67.1667,-0.5 123.833,-0.5 180.5,-0.5C 184.5,2.83333 188.167,6.5 191.5,10.5C 191.5,67.1667 191.5,123.833 191.5,180.5C 188.167,184.5 184.5,188.167 180.5,191.5C 123.833,191.5 67.1667,191.5 10.5,191.5C 6.5,188.167 2.83333,184.5 -0.5,180.5C -0.5,123.833 -0.5,67.1667 -0.5,10.5C 2.83333,6.5 6.5,2.83333 10.5,-0.5 Z"/></g>
<g><path style="opacity:1" fill="#efeff2" d="M 149.5,49.5 C 148.833,46.8333 148.167,44.1667 147.5,41.5C 144.418,34.4609 139.084,31.9609 131.5,34C 126.287,37.5461 122.12,42.0461 119,47.5C 114.232,57.2204 110.066,67.2204 106.5,77.5C 112.798,78.4963 119.132,78.8297 125.5,78.5C 125.5,79.5 125.5,80.5 125.5,81.5C 118.618,82.07 111.785,82.7366 105,83.5C 98.6071,102.404 94.1071,121.738 91.5,141.5C 96.0229,139.993 100.523,138.326 105,136.5C 106.257,136.85 106.591,137.517 106,138.5C 94.1453,143.685 83.9786,151.185 75.5,161C 74.3999,161.432 73.7332,160.932 73.5,159.5C 76.1093,155.716 78.9426,152.049 82,148.5C 86.3451,126.948 91.8451,105.615 98.5,84.5C 88.8505,83.3345 79.1839,83.1679 69.5,84C 62.8101,102.121 58.1434,120.787 55.5,140C 55.8333,140.833 56.1667,141.667 56.5,142.5C 60.7847,139.186 65.4513,137.52 70.5,137.5C 59.1283,143.865 48.795,151.698 39.5,161C 38.5165,161.591 37.8499,161.257 37.5,160C 39.5613,155.932 42.3946,152.432 46,149.5C 49.6259,136.328 52.6259,122.995 55,109.5C 57.4146,100.843 60.2479,92.3428 63.5,84C 61.0995,83.8142 58.7662,83.3142 56.5,82.5C 58.4341,79.3411 61.2674,77.6744 65,77.5C 69.1692,62.3513 76.3359,48.8513 86.5,37C 91.24,33.1287 96.5734,30.6287 102.5,29.5C 110.538,29.3733 116.038,33.04 119,40.5C 124.293,34.6059 130.793,30.9392 138.5,29.5C 145.24,29.6114 150.073,32.6114 153,38.5C 154.094,42.9589 152.927,46.6256 149.5,49.5 Z"/></g>
<g><path style="opacity:1" fill="#211d4d" d="M 100.5,78.5 C 90.6522,78.8271 80.9856,78.4938 71.5,77.5C 74.7618,61.1408 82.0951,46.9741 93.5,35C 107.8,31.2981 113.967,36.7981 112,51.5C 106.908,59.9351 103.075,68.9351 100.5,78.5 Z"/></g>
<g><path style="opacity:1" fill="#72708e" d="M 147.5,41.5 C 148.167,44.1667 148.833,46.8333 149.5,49.5C 149.44,50.0431 149.107,50.3764 148.5,50.5C 147.516,47.5719 147.183,44.5719 147.5,41.5 Z"/></g>
<g><path style="opacity:1" fill="#a3a2b6" d="M 71.5,77.5 C 80.9856,78.4938 90.6522,78.8271 100.5,78.5C 90.6589,79.8229 80.6589,79.8229 70.5,78.5C 70.6236,77.8933 70.9569,77.56 71.5,77.5 Z"/></g>
</svg>
