<svg width="78.321" height="88.001" viewBox="0 0 78.321 88.001" xmlns="http://www.w3.org/2000/svg"><g id="svgGroup" stroke-linecap="round" fill-rule="evenodd" font-size="9pt" stroke="#ffffff" stroke-width="0.25mm" fill="#1e1b4b" style="stroke:#ffffff;stroke-width:0.25mm;fill:#1e1b4b"><path d="M 49.83 13.64 L 49.61 13.53 Q 49.515 13.34 49.502 13.067 A 1.852 1.852 0 0 1 49.5 12.98 A 4.151 4.151 0 0 1 49.718 11.666 A 4.322 4.322 0 0 1 49.72 11.66 A 4.157 4.157 0 0 0 49.94 10.361 A 3.968 3.968 0 0 0 49.94 10.34 A 7.468 7.468 0 0 0 48.28 5.654 A 10.17 10.17 0 0 0 47.52 4.785 A 8.856 8.856 0 0 0 45.445 3.183 A 7.029 7.029 0 0 0 42.02 2.31 A 8.528 8.528 0 0 0 37.26 3.783 A 11.438 11.438 0 0 0 36.08 4.675 A 21.524 21.524 0 0 0 33.22 7.69 A 29.078 29.078 0 0 0 31.075 10.835 Q 28.82 14.63 27.005 18.81 A 111.459 111.459 0 0 0 25.044 23.619 A 89.812 89.812 0 0 0 23.925 26.73 A 2506.193 2506.193 0 0 0 23.323 28.511 Q 22.588 30.691 22.058 32.277 A 750.072 750.072 0 0 0 21.89 32.78 Q 24.09 32.89 26.235 32.89 L 30.58 32.89 A 65.087 65.087 0 0 1 31.712 32.901 Q 32.294 32.911 32.944 32.931 A 116.022 116.022 0 0 1 33.385 32.945 A 8.863 8.863 0 0 1 33.886 32.976 Q 34.608 33.042 34.853 33.223 A 0.268 0.268 0 0 1 34.98 33.44 A 0.935 0.935 0 0 1 34.563 34.248 Q 34.402 34.361 34.18 34.441 A 2.356 2.356 0 0 1 34.045 34.485 A 32.43 32.43 0 0 1 33.602 34.613 Q 33.12 34.747 32.765 34.827 A 8.784 8.784 0 0 1 32.56 34.87 Q 29.7 35.2 26.785 35.365 Q 23.87 35.53 21.01 35.75 Q 19.58 39.82 18.425 44.165 Q 17.27 48.51 16.17 52.8 Q 14.74 58.3 13.53 63.965 Q 12.32 69.63 11.88 75.35 A 40.698 40.698 0 0 1 12.392 75.099 Q 13.176 74.721 14.48 74.12 A 289.258 289.258 0 0 1 14.795 73.975 Q 16.83 73.04 18.81 72.16 A 33.548 33.548 0 0 1 19.502 71.861 Q 20.535 71.43 21.047 71.319 A 1.438 1.438 0 0 1 21.34 71.28 Q 22.094 71.28 22.11 71.808 A 0.762 0.762 0 0 1 22.11 71.83 A 1.246 1.246 0 0 1 22.036 72.271 Q 21.918 72.585 21.613 72.787 A 1.405 1.405 0 0 1 21.56 72.82 Q 21.01 73.15 20.46 73.37 Q 18.04 74.47 15.675 75.79 Q 13.31 77.11 11.11 78.76 Q 8.36 80.74 6.05 82.885 A 60.218 60.218 0 0 0 2.092 86.934 A 66.172 66.172 0 0 0 1.54 87.56 A 3.868 3.868 0 0 1 1.361 87.729 Q 1.053 88 0.88 88 Q 0.027 88 0.001 87.069 A 2.129 2.129 0 0 1 0 87.01 Q 0 86.173 0.866 84.942 A 10.882 10.882 0 0 1 1.21 84.48 Q 2.42 82.94 3.85 81.455 Q 5.227 80.026 5.89 79.361 A 47.605 47.605 0 0 1 5.94 79.31 Q 6.049 78.438 6.158 76.648 A 116.254 116.254 0 0 0 6.16 76.615 A 20.541 20.541 0 0 1 6.441 74.224 A 17.639 17.639 0 0 1 6.655 73.205 A 5.972 5.972 0 0 1 6.842 72.573 Q 7.208 71.562 7.81 71.39 Q 9.68 62.48 11.825 53.515 Q 13.97 44.55 17.05 35.97 A 12.301 12.301 0 0 0 16.058 36.012 A 15.204 15.204 0 0 0 15.4 36.08 Q 14.52 36.19 13.64 36.19 Q 13.383 36.19 13.06 36.091 A 3.396 3.396 0 0 1 12.87 36.025 Q 12.454 35.87 12.431 35.468 A 0.836 0.836 0 0 1 12.43 35.42 A 1.193 1.193 0 0 1 12.686 34.687 A 1.781 1.781 0 0 1 12.925 34.43 A 5.24 5.24 0 0 1 13.162 34.231 Q 13.423 34.026 13.629 33.929 A 1.13 1.13 0 0 1 13.75 33.88 Q 14.812 33.108 15.578 32.971 A 1.897 1.897 0 0 1 15.785 32.945 A 19.796 19.796 0 0 1 16.36 32.916 Q 16.959 32.894 17.769 32.891 A 69.894 69.894 0 0 1 18.04 32.89 A 97.571 97.571 0 0 1 19.739 27.612 A 120.615 120.615 0 0 1 21.065 24.035 Q 22.88 19.36 25.355 14.85 Q 27.83 10.34 31.075 6.765 Q 34.32 3.19 38.61 1.21 A 14.231 14.231 0 0 1 42.219 0.143 A 12.625 12.625 0 0 1 44.11 0 A 10.038 10.038 0 0 1 47.265 0.481 A 8.764 8.764 0 0 1 49.665 1.705 Q 52.03 3.41 53.13 6.38 Q 53.35 6.82 53.35 7.15 L 53.35 7.92 A 6.802 6.802 0 0 1 52.827 10.625 A 6.454 6.454 0 0 1 50.93 13.09 A 2.044 2.044 0 0 0 50.757 13.188 Q 50.666 13.246 50.566 13.319 A 4.277 4.277 0 0 0 50.435 13.42 A 1.008 1.008 0 0 1 50.118 13.595 A 0.921 0.921 0 0 1 49.83 13.64 Z M 74.8 13.64 L 74.58 13.53 Q 74.485 13.34 74.472 13.067 A 1.852 1.852 0 0 1 74.47 12.98 A 4.151 4.151 0 0 1 74.688 11.666 A 4.322 4.322 0 0 1 74.69 11.66 A 4.157 4.157 0 0 0 74.91 10.361 A 3.968 3.968 0 0 0 74.91 10.34 A 7.468 7.468 0 0 0 73.25 5.654 A 10.17 10.17 0 0 0 72.49 4.785 A 8.856 8.856 0 0 0 70.415 3.183 A 7.029 7.029 0 0 0 66.99 2.31 A 8.528 8.528 0 0 0 62.23 3.783 A 11.438 11.438 0 0 0 61.05 4.675 A 21.524 21.524 0 0 0 58.19 7.69 A 29.078 29.078 0 0 0 56.045 10.835 Q 53.79 14.63 51.975 18.81 A 111.459 111.459 0 0 0 50.014 23.619 A 89.812 89.812 0 0 0 48.895 26.73 A 2506.193 2506.193 0 0 0 48.293 28.511 Q 47.558 30.691 47.028 32.277 A 750.072 750.072 0 0 0 46.86 32.78 Q 49.06 32.89 51.205 32.89 L 55.55 32.89 A 65.087 65.087 0 0 1 56.682 32.901 Q 57.264 32.911 57.914 32.931 A 116.022 116.022 0 0 1 58.355 32.945 A 8.863 8.863 0 0 1 58.856 32.976 Q 59.578 33.042 59.823 33.223 A 0.268 0.268 0 0 1 59.95 33.44 A 0.935 0.935 0 0 1 59.533 34.248 Q 59.372 34.361 59.15 34.441 A 2.356 2.356 0 0 1 59.015 34.485 A 32.43 32.43 0 0 1 58.572 34.613 Q 58.09 34.747 57.735 34.827 A 8.784 8.784 0 0 1 57.53 34.87 Q 54.67 35.2 51.755 35.365 Q 48.84 35.53 45.98 35.75 Q 44.55 39.82 43.395 44.165 Q 42.24 48.51 41.14 52.8 Q 39.71 58.3 38.5 63.965 Q 37.29 69.63 36.85 75.35 A 40.698 40.698 0 0 1 37.362 75.099 Q 38.146 74.721 39.45 74.12 A 289.258 289.258 0 0 1 39.765 73.975 Q 41.8 73.04 43.78 72.16 A 33.548 33.548 0 0 1 44.472 71.861 Q 45.505 71.43 46.017 71.319 A 1.438 1.438 0 0 1 46.31 71.28 Q 47.064 71.28 47.08 71.808 A 0.762 0.762 0 0 1 47.08 71.83 A 1.246 1.246 0 0 1 47.006 72.271 Q 46.888 72.585 46.583 72.787 A 1.405 1.405 0 0 1 46.53 72.82 Q 45.98 73.15 45.43 73.37 Q 43.01 74.47 40.645 75.79 Q 38.28 77.11 36.08 78.76 Q 33.33 80.74 31.02 82.885 A 60.218 60.218 0 0 0 27.062 86.934 A 66.172 66.172 0 0 0 26.51 87.56 A 3.868 3.868 0 0 1 26.331 87.729 Q 26.023 88 25.85 88 Q 24.997 88 24.971 87.069 A 2.129 2.129 0 0 1 24.97 87.01 Q 24.97 86.173 25.836 84.942 A 10.882 10.882 0 0 1 26.18 84.48 Q 27.39 82.94 28.82 81.455 Q 30.197 80.026 30.86 79.361 A 47.605 47.605 0 0 1 30.91 79.31 Q 31.019 78.438 31.128 76.648 A 116.254 116.254 0 0 0 31.13 76.615 A 20.541 20.541 0 0 1 31.411 74.224 A 17.639 17.639 0 0 1 31.625 73.205 A 5.972 5.972 0 0 1 31.812 72.573 Q 32.178 71.562 32.78 71.39 Q 34.65 62.48 36.795 53.515 Q 38.94 44.55 42.02 35.97 A 12.301 12.301 0 0 0 41.028 36.012 A 15.204 15.204 0 0 0 40.37 36.08 Q 39.49 36.19 38.61 36.19 Q 38.353 36.19 38.03 36.091 A 3.396 3.396 0 0 1 37.84 36.025 Q 37.424 35.87 37.401 35.468 A 0.836 0.836 0 0 1 37.4 35.42 A 1.193 1.193 0 0 1 37.656 34.687 A 1.781 1.781 0 0 1 37.895 34.43 A 5.24 5.24 0 0 1 38.132 34.231 Q 38.393 34.026 38.599 33.929 A 1.13 1.13 0 0 1 38.72 33.88 Q 39.782 33.108 40.548 32.971 A 1.897 1.897 0 0 1 40.755 32.945 A 19.796 19.796 0 0 1 41.33 32.916 Q 41.929 32.894 42.739 32.891 A 69.894 69.894 0 0 1 43.01 32.89 A 97.571 97.571 0 0 1 44.709 27.612 A 120.615 120.615 0 0 1 46.035 24.035 Q 47.85 19.36 50.325 14.85 Q 52.8 10.34 56.045 6.765 Q 59.29 3.19 63.58 1.21 A 14.231 14.231 0 0 1 67.189 0.143 A 12.625 12.625 0 0 1 69.08 0 A 10.038 10.038 0 0 1 72.235 0.481 A 8.764 8.764 0 0 1 74.635 1.705 Q 77 3.41 78.1 6.38 Q 78.32 6.82 78.32 7.15 L 78.32 7.92 A 6.802 6.802 0 0 1 77.797 10.625 A 6.454 6.454 0 0 1 75.9 13.09 A 2.044 2.044 0 0 0 75.727 13.188 Q 75.636 13.246 75.536 13.319 A 4.277 4.277 0 0 0 75.405 13.42 A 1.008 1.008 0 0 1 75.088 13.595 A 0.921 0.921 0 0 1 74.8 13.64 Z" vector-effect="non-scaling-stroke"/></g></svg>